<mxfile host="app.diagrams.net" modified="2021-08-20T12:39:54.928Z" agent="5.0 (Macintosh; Intel Mac OS X 10_15_7) AppleWebKit/537.36 (KHTML, like Gecko) Chrome/92.0.4515.159 Safari/537.36" etag="dBFUeJy9pk7OYXkutcdH" version="14.9.8" type="github">
  <diagram id="prtHgNgQTEPvFCAcTncT" name="Page-1">
    <mxGraphModel dx="2066" dy="1186" grid="1" gridSize="10" guides="1" tooltips="1" connect="1" arrows="1" fold="1" page="1" pageScale="1" pageWidth="827" pageHeight="1169" math="0" shadow="0">
      <root>
        <mxCell id="0" />
        <mxCell id="1" parent="0" />
        <mxCell id="dNxyNK7c78bLwvsdeMH5-11" value="Dev des API de Secuserve" style="swimlane;html=1;startSize=20;horizontal=1;containerType=tree;glass=0;" parent="1" vertex="1">
          <mxGeometry x="20" y="80" width="950" height="460" as="geometry">
            <mxRectangle x="40" y="80" width="190" height="20" as="alternateBounds" />
          </mxGeometry>
        </mxCell>
        <mxCell id="foQhFA5tPt2-90skIP3_-1" value="STUDIO STOPLIGHT" style="whiteSpace=wrap;html=1;aspect=fixed;" vertex="1" parent="dNxyNK7c78bLwvsdeMH5-11">
          <mxGeometry x="60" y="80" width="110" height="110" as="geometry" />
        </mxCell>
        <mxCell id="foQhFA5tPt2-90skIP3_-3" value="MODÉLISATION" style="rounded=0;whiteSpace=wrap;html=1;" vertex="1" parent="dNxyNK7c78bLwvsdeMH5-11">
          <mxGeometry x="60" y="50" width="110" height="20" as="geometry" />
        </mxCell>
        <mxCell id="foQhFA5tPt2-90skIP3_-6" value="" style="points=[];aspect=fixed;html=1;align=center;shadow=0;dashed=0;image;image=img/lib/allied_telesis/computer_and_terminals/Personal_Computer.svg;" vertex="1" parent="dNxyNK7c78bLwvsdeMH5-11">
          <mxGeometry x="70" y="260" width="90" height="121.97" as="geometry" />
        </mxCell>
        <mxCell id="foQhFA5tPt2-90skIP3_-11" value="GIT LAB" style="whiteSpace=wrap;html=1;aspect=fixed;" vertex="1" parent="dNxyNK7c78bLwvsdeMH5-11">
          <mxGeometry x="280" y="80" width="110" height="110" as="geometry" />
        </mxCell>
        <mxCell id="foQhFA5tPt2-90skIP3_-12" value="HÉBERGEMENT" style="rounded=0;whiteSpace=wrap;html=1;" vertex="1" parent="dNxyNK7c78bLwvsdeMH5-11">
          <mxGeometry x="280" y="50" width="110" height="20" as="geometry" />
        </mxCell>
        <mxCell id="foQhFA5tPt2-90skIP3_-14" value="URL&lt;br&gt;RAW" style="ellipse;shape=cloud;whiteSpace=wrap;html=1;align=center;" vertex="1" parent="dNxyNK7c78bLwvsdeMH5-11">
          <mxGeometry x="267.5" y="290.00000000000006" width="135" height="99.02" as="geometry" />
        </mxCell>
        <mxCell id="foQhFA5tPt2-90skIP3_-7" value="APP" style="rounded=0;whiteSpace=wrap;html=1;" vertex="1" parent="dNxyNK7c78bLwvsdeMH5-11">
          <mxGeometry x="77.5" y="320" width="75" height="20" as="geometry" />
        </mxCell>
        <mxCell id="foQhFA5tPt2-90skIP3_-15" value="ELEMENTS&lt;br&gt;STOPLIGHT" style="whiteSpace=wrap;html=1;aspect=fixed;" vertex="1" parent="dNxyNK7c78bLwvsdeMH5-11">
          <mxGeometry x="502.5" y="80" width="110" height="110" as="geometry" />
        </mxCell>
        <mxCell id="foQhFA5tPt2-90skIP3_-16" value="DOCUMENTATION" style="rounded=0;whiteSpace=wrap;html=1;" vertex="1" parent="dNxyNK7c78bLwvsdeMH5-11">
          <mxGeometry x="502.5" y="50" width="110" height="20" as="geometry" />
        </mxCell>
        <mxCell id="foQhFA5tPt2-90skIP3_-17" value="URL&lt;br&gt;HTTP&amp;nbsp;&lt;br&gt;Externe" style="ellipse;shape=cloud;whiteSpace=wrap;html=1;align=center;" vertex="1" parent="dNxyNK7c78bLwvsdeMH5-11">
          <mxGeometry x="490" y="290.00000000000006" width="135" height="99.02" as="geometry" />
        </mxCell>
        <mxCell id="foQhFA5tPt2-90skIP3_-18" value="" style="shape=flexArrow;endArrow=classic;html=1;" edge="1" parent="dNxyNK7c78bLwvsdeMH5-11">
          <mxGeometry width="50" height="50" relative="1" as="geometry">
            <mxPoint x="402.5" y="130" as="sourcePoint" />
            <mxPoint x="492.5" y="130" as="targetPoint" />
          </mxGeometry>
        </mxCell>
        <mxCell id="foQhFA5tPt2-90skIP3_-19" value="" style="endArrow=none;dashed=1;html=1;dashPattern=1 3;strokeWidth=2;entryX=0.5;entryY=1;entryDx=0;entryDy=0;" edge="1" parent="dNxyNK7c78bLwvsdeMH5-11" target="foQhFA5tPt2-90skIP3_-15">
          <mxGeometry width="50" height="50" relative="1" as="geometry">
            <mxPoint x="557.5" y="290" as="sourcePoint" />
            <mxPoint x="642.5" y="470" as="targetPoint" />
          </mxGeometry>
        </mxCell>
        <mxCell id="foQhFA5tPt2-90skIP3_-20" value="API DEV" style="whiteSpace=wrap;html=1;aspect=fixed;" vertex="1" parent="dNxyNK7c78bLwvsdeMH5-11">
          <mxGeometry x="725" y="130" width="110" height="110" as="geometry" />
        </mxCell>
        <mxCell id="foQhFA5tPt2-90skIP3_-21" value="DÉVELOPPEMENT" style="rounded=0;whiteSpace=wrap;html=1;" vertex="1" parent="dNxyNK7c78bLwvsdeMH5-11">
          <mxGeometry x="725" y="50" width="110" height="20" as="geometry" />
        </mxCell>
        <mxCell id="foQhFA5tPt2-90skIP3_-22" value="URL&lt;br&gt;HTTP&lt;br&gt;Interne" style="ellipse;shape=cloud;whiteSpace=wrap;html=1;align=center;" vertex="1" parent="dNxyNK7c78bLwvsdeMH5-11">
          <mxGeometry x="712.5" y="340.00000000000006" width="135" height="99.02" as="geometry" />
        </mxCell>
        <mxCell id="foQhFA5tPt2-90skIP3_-23" value="" style="shape=flexArrow;endArrow=classic;html=1;" edge="1" parent="dNxyNK7c78bLwvsdeMH5-11">
          <mxGeometry width="50" height="50" relative="1" as="geometry">
            <mxPoint x="625" y="130" as="sourcePoint" />
            <mxPoint x="715" y="130" as="targetPoint" />
          </mxGeometry>
        </mxCell>
        <mxCell id="foQhFA5tPt2-90skIP3_-25" value="POSTMAN" style="rounded=0;whiteSpace=wrap;html=1;" vertex="1" parent="dNxyNK7c78bLwvsdeMH5-11">
          <mxGeometry x="725" y="80" width="110" height="20" as="geometry" />
        </mxCell>
        <mxCell id="foQhFA5tPt2-90skIP3_-26" value="IDE" style="rounded=0;whiteSpace=wrap;html=1;" vertex="1" parent="dNxyNK7c78bLwvsdeMH5-11">
          <mxGeometry x="725" y="270" width="110" height="20" as="geometry" />
        </mxCell>
        <mxCell id="foQhFA5tPt2-90skIP3_-28" value="" style="shape=flexArrow;endArrow=classic;html=1;" edge="1" parent="dNxyNK7c78bLwvsdeMH5-11">
          <mxGeometry width="50" height="50" relative="1" as="geometry">
            <mxPoint x="807" y="100" as="sourcePoint" />
            <mxPoint x="807" y="130" as="targetPoint" />
          </mxGeometry>
        </mxCell>
        <mxCell id="foQhFA5tPt2-90skIP3_-30" value="" style="shape=flexArrow;endArrow=classic;html=1;" edge="1" parent="dNxyNK7c78bLwvsdeMH5-11">
          <mxGeometry width="50" height="50" relative="1" as="geometry">
            <mxPoint x="750" y="270" as="sourcePoint" />
            <mxPoint x="750" y="240" as="targetPoint" />
          </mxGeometry>
        </mxCell>
        <mxCell id="foQhFA5tPt2-90skIP3_-4" value="" style="endArrow=none;dashed=1;html=1;dashPattern=1 3;strokeWidth=2;exitX=0.5;exitY=1;exitDx=0;exitDy=0;" edge="1" parent="1" source="foQhFA5tPt2-90skIP3_-1">
          <mxGeometry width="50" height="50" relative="1" as="geometry">
            <mxPoint x="390" y="570" as="sourcePoint" />
            <mxPoint x="135" y="350" as="targetPoint" />
          </mxGeometry>
        </mxCell>
        <mxCell id="foQhFA5tPt2-90skIP3_-8" value="" style="shape=flexArrow;endArrow=classic;html=1;" edge="1" parent="1">
          <mxGeometry width="50" height="50" relative="1" as="geometry">
            <mxPoint x="200" y="210" as="sourcePoint" />
            <mxPoint x="290" y="210" as="targetPoint" />
          </mxGeometry>
        </mxCell>
        <mxCell id="foQhFA5tPt2-90skIP3_-13" value="" style="endArrow=none;dashed=1;html=1;dashPattern=1 3;strokeWidth=2;entryX=0.5;entryY=1;entryDx=0;entryDy=0;" edge="1" parent="1" target="foQhFA5tPt2-90skIP3_-11">
          <mxGeometry width="50" height="50" relative="1" as="geometry">
            <mxPoint x="355" y="370" as="sourcePoint" />
            <mxPoint x="440" y="550" as="targetPoint" />
          </mxGeometry>
        </mxCell>
        <mxCell id="foQhFA5tPt2-90skIP3_-27" value="" style="shape=flexArrow;endArrow=classic;html=1;" edge="1" parent="1">
          <mxGeometry width="50" height="50" relative="1" as="geometry">
            <mxPoint x="770" y="180" as="sourcePoint" />
            <mxPoint x="770" y="210" as="targetPoint" />
          </mxGeometry>
        </mxCell>
        <mxCell id="foQhFA5tPt2-90skIP3_-31" value="" style="shape=flexArrow;endArrow=classic;html=1;" edge="1" parent="1">
          <mxGeometry width="50" height="50" relative="1" as="geometry">
            <mxPoint x="830" y="350" as="sourcePoint" />
            <mxPoint x="830" y="320" as="targetPoint" />
          </mxGeometry>
        </mxCell>
        <mxCell id="foQhFA5tPt2-90skIP3_-32" value="" style="endArrow=none;dashed=1;html=1;dashPattern=1 3;strokeWidth=2;entryX=0.5;entryY=1;entryDx=0;entryDy=0;" edge="1" parent="1" target="foQhFA5tPt2-90skIP3_-26">
          <mxGeometry width="50" height="50" relative="1" as="geometry">
            <mxPoint x="800" y="420" as="sourcePoint" />
            <mxPoint x="440" y="550" as="targetPoint" />
          </mxGeometry>
        </mxCell>
      </root>
    </mxGraphModel>
  </diagram>
</mxfile>
